<svg xmlns="http://www.w3.org/2000/svg" viewBox="0 0 24 24" fill="currentColor" class="w-6 h-6">
  <path d="M12 16.5c-.38 0-.74-.15-1.02-.42l-3.29-3.29a1.5 1.5 0 1 1 2.12-2.12l.19.19V6a1.5 1.5 0 1 1 3 0v4.86l.19-.19a1.5 1.5 0 1 1 2.12 2.12l-3.29 3.29c-.28.27-.64.42-1.02.42z"/>
  <path d="M3.75 21a1.5 1.5 0 0 1-1.5-1.5V4.5a1.5 1.5 0 0 1 1.5-1.5h9a.75.75 0 0 1 .53.22l6.75 6.75a.75.75 0 0 1 .22.53V19.5a1.5 1.5 0 0 1-1.5 1.5H3.75zM3 19.5c0 .41.34.75.75.75h16.5a.75.75 0 0 0 .75-.75V10.56L12.44 3H3.75a.75.75 0 0 0-.75.75v15.75z"/>
</svg>
