<svg class="w-6 h-6" xmlns="http://www.w3.org/2000/svg" viewBox="0 0 24 24" fill="currentColor">
    <path d="M19 0h-14c-2.761 0-5 2.239-5 5v14c0 2.761 2.239 5 5 5h14c2.761 0 5-2.239 5-5v-14c0-2.761-2.239-5-5-5zm-11 19h-3v-10h3v10zm-1.5-11.268c-.966 0-1.75-.784-1.75-1.75s.784-1.75 1.75-1.75 1.75.784 1.75 1.75-.784 1.75-1.75 1.75zm13.5 11.268h-3v-5.604c0-1.337-.026-3.061-1.867-3.061-1.867 0-2.153 1.458-2.153 2.963v5.702h-3v-10h2.88v1.362h.041c.402-.761 1.38-1.563 2.84-1.563 3.04 0 3.599 2.002 3.599 4.606v5.595z"/>
</svg>
